<?xml version="1.0" standalone="no"?><!DOCTYPE svg PUBLIC "-//W3C//DTD SVG 1.1//EN" "http://www.w3.org/Graphics/SVG/1.1/DTD/svg11.dtd"><svg t="1745129642963" class="icon" viewBox="0 0 1076 1024" version="1.1" xmlns="http://www.w3.org/2000/svg" p-id="1634" xmlns:xlink="http://www.w3.org/1999/xlink" width="269" height="256"><path d="M323.833345 224.776531c20.513329 0 26.721892 4.02598 40.481012 7.462074 20.100408 5.028789 36.130593 16.959258 49.004882 29.833547 22.85813 22.85813 40.481012 50.169909 40.481012 95.871423 0 39.86163-11.871481 55.301928-26.633409 79.900226-10.647465 17.755606-31.278771 33.608825-51.128476 41.542808l-10.647465 4.261936v25.571611c0 38.416406 2.521768 53.989429 26.633409 66.052624l6.385529 4.261935h289.75261c9.733139-6.48876 23.772456-12.741564 27.695206-24.495068 4.645362-13.950833 5.323732-20.616559 5.323732-45.804743v-25.571612l-10.647464-4.261935c-13.124991-5.249996-26.721892-14.997883-36.219076-24.495068-23.389029-23.389029-41.542809-50.907268-41.542809-96.93322 0-75.830004 47.220473-115.66214 108.657229-131.028702 4.261935-1.061797 12.785806-1.061797 23.43327-1.061797 39.86163 0 54.358109 9.821622 78.823682 24.495067 11.429065 6.857439 22.194507 19.643245 29.833547 29.833547 14.127799 18.846897 24.495067 45.126374 24.495068 77.761885 0 50.022438-22.740153 78.130564-47.943086 103.333497-10.735948 10.735948-25.719083 16.841281-40.481011 22.371473v35.157279c0 67.291386-18.124285 96.417069-58.59055 126.766767-13.434682 10.072325-30.541412 16.693809-49.004882 21.309677-6.385529 1.061797-18.109538 2.138341-60.714144 2.138341h-53.266817v95.871423c33.446606 12.535104 60.139004 38.254187 75.638291 69.238014 8.051961 16.103922 12.785806 32.679753 12.785806 56.452209 0 61.982401-34.936072 99.484482-76.700088 120.36649-16.103922 8.051961-32.679753 12.785806-56.452209 12.785806-61.274537 0-99.764679-35.481717-120.381237-76.700088-8.051961-16.103922-12.785806-32.679753-12.785806-56.452208 0-55.080721 28.373576-86.816654 59.652346-111.857367 9.157999-5.500698 19.289313-9.644656 28.757003-13.847603v-95.871423h-53.266817c-44.742947 0-54.328614-1.061797-60.714144-2.138341-55.065973-13.773867-91.668476-49.255584-105.457091-104.395294-1.061797-6.385529-2.138341-15.985944-2.138341-43.68115v-35.157279c-22.843383-8.568112-40.392528-22.28299-56.452208-38.34267-19.289313-19.289313-31.957141-49.624264-31.957141-87.347553 0-52.190273 24.170629-84.973256 54.328614-107.595432 14.658698-11.001397 31.426242-17.180466 52.205021-22.371473 4.261935-1.061797 9.585668-2.138341 10.647464-2.138341s9.585668-1.061797 18.109538-1.061797z m2.138342 89.471147h-11.724009c-14.820917 0-25.807567 14.201535-31.957141 23.43327-10.942408 16.398865-1.902386 41.778763 7.462073 51.128476 8.037214 8.037214 15.351815 11.724009 31.957141 11.724009 27.164307 0 42.604606-15.130608 42.604606-42.604605 0-21.781586-7.727523-25.837061-18.109538-36.219077-4.02598-4.02598-12.859542-7.462074-20.233132-7.462073z m443.152786 0h-10.647465c-20.793525 0-36.219076 21.737345-36.219076 43.68115s10.396763 31.794922 23.43327 40.481011c6.385529 3.200138 7.462074 2.138341 19.171335 2.138341 27.341273 0 38.23944-14.511226 43.68115-36.219076 6.090586-24.362343-12.225413-42.073707-29.833547-47.943085-3.200138-1.061797-7.462074-2.138341-9.585667-2.138341z m-223.714735 532.638679c-19.377796 0-24.288607 4.055475-34.095482 13.847603-6.149574 6.149574-11.724009 12.800553-11.724009 23.433271v12.785806c0 18.72892 19.097599 37.280873 37.280874 37.280873h12.785805c18.72892 0 37.280873-19.097599 37.280874-37.280873v-12.785806c0-20.439593-20.719789-37.280873-41.542809-37.280874z" p-id="1635" fill="#8a8a8a"></path></svg>